<?xml version="1.0" encoding="UTF-8"?><svg id="Calque_2" xmlns="http://www.w3.org/2000/svg" viewBox="0 0 532.65 474.78"><g id="Calque_1-2"><g id="BTZTFt.tif"><path d="M132.06,237.83c-2.03-3.53-3.85-6.67-5.66-9.82-4-6.96-3.81-7.75,2.98-11.67,39.43-22.76,78.87-45.52,118.3-68.28,2.58-1.49,5.14-3,8.15-4.76-1.8-3.18-3.49-6.17-5.19-9.16-3.28-5.76-2.97-6.95,2.69-10.22,51.08-29.5,102.16-59.01,153.25-88.5,19.13-11.05,38.28-22.08,57.41-33.13,6.1-3.52,7.24-3.27,10.64,2.62,18.62,32.23,37.23,64.47,55.83,96.71,3.44,5.96,3.13,7.11-2.88,10.58-70.22,40.55-140.45,81.08-210.69,121.61-1.57,.91-3.22,1.69-5.33,2.79,.9,1.62,1.81,3.29,2.76,4.93,42.87,74.26,85.74,148.51,128.57,222.8,1.71,2.97,5.37,6.62,.79,9.48-4.96,3.1-6.45-1.98-8.26-5.11-43.65-75.54-87.26-151.09-130.88-226.64-.83-1.43-1.72-2.82-3.62-4.21v4.91c0,74.02,.03,148.05-.08,222.07,0,3.68,2.13,9.67-4.42,9.59-6.02-.07-4.22-5.78-4.22-9.4-.09-73.69-.06-147.38-.06-221.07v-5.76c-.3-.08-.6-.16-.89-.24-.92,1.47-1.88,2.92-2.75,4.43-43.54,75.41-87.07,150.82-130.61,226.23-.33,.58-.68,1.14-1,1.73-1.6,2.95-3.57,5.9-7.32,3.69-3.83-2.26-1.83-5.39-.21-8.2,32.66-56.55,65.31-113.11,97.97-169.66,11.63-20.15,23.26-40.3,34.88-60.45,.47-.82,.86-1.68,1.97-3.85-5.47,3.15-9.72,5.58-13.96,8.03-31.95,18.43-63.9,36.88-95.86,55.3-6.34,3.65-7.22,3.38-10.89-2.98-1.91-3.3-3.81-6.6-5.94-10.28-1.75,.97-3.32,1.81-4.86,2.7-40.16,23.16-80.31,46.33-120.47,69.49q-8.53,4.92-13.57-3.81c-5.57-9.64-11.14-19.28-16.68-28.94-3.08-5.38-2.71-6.66,2.76-9.83,40.72-23.53,81.44-47.05,122.15-70.58,1.69-.98,3.36-2.01,5.21-3.12Zm126.85-107.08c18.27,31.64,36.4,63.04,54.77,94.85,69.77-40.28,139.17-80.36,208.71-120.51-18.43-31.91-36.52-63.23-54.76-94.81-7.71,4.46-14.98,8.66-22.46,12.99,1.02,1.91,1.74,3.36,2.56,4.77,9.37,16.27,18.77,32.53,28.14,48.79,1.66,2.88,3.7,5.64,4.74,8.73,.52,1.54-.28,4.6-1.49,5.34-1.22,.75-3.83-.2-5.53-1.02-1.01-.48-1.47-2.13-2.14-3.28-10.3-17.84-20.59-35.69-30.89-53.54-.98-1.69-2.03-3.34-3.23-5.3-59.63,34.42-118.89,68.62-178.41,102.98Zm-124.76,92.95c12.41,21.48,24.43,42.29,36.67,63.47,42.01-24.27,83.8-48.41,125.96-72.76-12.34-21.35-24.48-42.35-36.66-63.42-42.35,24.44-84.03,48.5-125.97,72.71Zm2.19,21.88c-42.18,24.35-83.98,48.49-126.06,72.78,5.61,9.7,11.05,19.12,16.62,28.75,42.26-24.4,84.02-48.52,126.06-72.8-5.69-9.85-11.05-19.12-16.62-28.74Z"/></g></g></svg>